<mxfile host="app.diagrams.net" agent="Mozilla/5.0 (Macintosh; Intel Mac OS X 10_15_7) AppleWebKit/537.36 (KHTML, like Gecko) Chrome/137.0.0.0 Safari/537.36" version="27.1.6">
  <diagram name="Page-1" id="74e2e168-ea6b-b213-b513-2b3c1d86103e">
    <mxGraphModel dx="2066" dy="1272" grid="1" gridSize="10" guides="1" tooltips="1" connect="1" arrows="1" fold="1" page="1" pageScale="1" pageWidth="1100" pageHeight="850" background="none" math="0" shadow="0">
      <root>
        <mxCell id="0" />
        <mxCell id="1" parent="0" />
        <mxCell id="77e6c97f196da883-1" value="&lt;font style=&quot;font-size: 14px;&quot;&gt;EventBridge&lt;/font&gt;" style="swimlane;html=1;childLayout=stackLayout;startSize=20;rounded=0;shadow=0;labelBackgroundColor=none;strokeWidth=1;fontFamily=Verdana;fontSize=8;align=center;" parent="1" vertex="1">
          <mxGeometry x="70" y="40" width="1300" height="1130" as="geometry" />
        </mxCell>
        <mxCell id="77e6c97f196da883-2" value="Source" style="swimlane;html=1;startSize=20;" parent="77e6c97f196da883-1" vertex="1">
          <mxGeometry y="20" width="160" height="1110" as="geometry" />
        </mxCell>
        <mxCell id="77e6c97f196da883-3" value="Service" style="swimlane;html=1;startSize=20;" parent="77e6c97f196da883-1" vertex="1">
          <mxGeometry x="160" y="20" width="160" height="1110" as="geometry" />
        </mxCell>
        <mxCell id="77e6c97f196da883-4" value="Job" style="swimlane;html=1;startSize=20;" parent="77e6c97f196da883-1" vertex="1">
          <mxGeometry x="320" y="20" width="160" height="1110" as="geometry" />
        </mxCell>
        <mxCell id="FJQ37Yu0FEw0Es8PJi74-59" value="" style="edgeStyle=orthogonalEdgeStyle;rounded=0;orthogonalLoop=1;jettySize=auto;html=1;fontSize=12;" parent="77e6c97f196da883-4" source="FJQ37Yu0FEw0Es8PJi74-49" target="FJQ37Yu0FEw0Es8PJi74-58" edge="1">
          <mxGeometry relative="1" as="geometry" />
        </mxCell>
        <mxCell id="FJQ37Yu0FEw0Es8PJi74-49" value="实时还是延迟 Event？" style="rhombus;whiteSpace=wrap;html=1;fontSize=12;fontFamily=Verdana;rounded=1;shadow=0;labelBackgroundColor=none;strokeWidth=1;" parent="77e6c97f196da883-4" vertex="1">
          <mxGeometry x="40" y="460" width="80" height="80" as="geometry" />
        </mxCell>
        <mxCell id="FJQ37Yu0FEw0Es8PJi74-58" value="指数衰减/退避重试策略" style="rhombus;whiteSpace=wrap;html=1;fontSize=12;fontFamily=Verdana;rounded=1;shadow=0;labelBackgroundColor=none;strokeWidth=1;" parent="77e6c97f196da883-4" vertex="1">
          <mxGeometry x="40" y="620" width="80" height="80" as="geometry" />
        </mxCell>
        <mxCell id="FJQ37Yu0FEw0Es8PJi74-68" value="重试成功或失败" style="rhombus;whiteSpace=wrap;html=1;fontSize=12;fontFamily=Verdana;rounded=1;shadow=0;labelBackgroundColor=none;strokeWidth=1;" parent="77e6c97f196da883-4" vertex="1">
          <mxGeometry x="40" y="870" width="80" height="80" as="geometry" />
        </mxCell>
        <mxCell id="77e6c97f196da883-5" value="source_topic" style="swimlane;html=1;startSize=20;" parent="77e6c97f196da883-1" vertex="1">
          <mxGeometry x="480" y="20" width="160" height="1110" as="geometry" />
        </mxCell>
        <mxCell id="FJQ37Yu0FEw0Es8PJi74-34" value="实时还是延迟 Event？" style="rhombus;whiteSpace=wrap;html=1;fontSize=12;fontFamily=Verdana;rounded=1;shadow=0;labelBackgroundColor=none;strokeWidth=1;" parent="77e6c97f196da883-5" vertex="1">
          <mxGeometry x="-270" y="280" width="80" height="80" as="geometry" />
        </mxCell>
        <mxCell id="FJQ37Yu0FEw0Es8PJi74-35" value="" style="edgeStyle=orthogonalEdgeStyle;rounded=0;orthogonalLoop=1;jettySize=auto;html=1;fontSize=12;" parent="77e6c97f196da883-5" source="FJQ37Yu0FEw0Es8PJi74-9" target="FJQ37Yu0FEw0Es8PJi74-34" edge="1">
          <mxGeometry relative="1" as="geometry" />
        </mxCell>
        <mxCell id="FJQ37Yu0FEw0Es8PJi74-22" value="结束" style="ellipse;whiteSpace=wrap;html=1;fontSize=12;fontFamily=Verdana;rounded=1;shadow=0;labelBackgroundColor=none;strokeWidth=1;" parent="77e6c97f196da883-5" vertex="1">
          <mxGeometry x="-450" y="210" width="80" height="80" as="geometry" />
        </mxCell>
        <mxCell id="77e6c97f196da883-8" value="发送 Event" style="rounded=1;whiteSpace=wrap;html=1;shadow=0;labelBackgroundColor=none;strokeWidth=1;fontFamily=Verdana;fontSize=12;align=center;" parent="77e6c97f196da883-5" vertex="1">
          <mxGeometry x="-460" y="140" width="100" height="60" as="geometry" />
        </mxCell>
        <mxCell id="FJQ37Yu0FEw0Es8PJi74-9" value="Schema 校验" style="rhombus;whiteSpace=wrap;html=1;fontSize=12;fontFamily=Verdana;rounded=1;shadow=0;labelBackgroundColor=none;strokeWidth=1;" parent="77e6c97f196da883-5" vertex="1">
          <mxGeometry x="-270" y="130" width="80" height="80" as="geometry" />
        </mxCell>
        <mxCell id="FJQ37Yu0FEw0Es8PJi74-10" value="" style="edgeStyle=orthogonalEdgeStyle;rounded=0;orthogonalLoop=1;jettySize=auto;html=1;fontSize=12;" parent="77e6c97f196da883-5" source="77e6c97f196da883-8" target="FJQ37Yu0FEw0Es8PJi74-9" edge="1">
          <mxGeometry relative="1" as="geometry" />
        </mxCell>
        <mxCell id="FJQ37Yu0FEw0Es8PJi74-23" value="" style="edgeStyle=orthogonalEdgeStyle;rounded=0;orthogonalLoop=1;jettySize=auto;html=1;fontSize=12;" parent="77e6c97f196da883-5" source="FJQ37Yu0FEw0Es8PJi74-9" target="FJQ37Yu0FEw0Es8PJi74-22" edge="1">
          <mxGeometry relative="1" as="geometry">
            <Array as="points">
              <mxPoint x="-230" y="250" />
            </Array>
          </mxGeometry>
        </mxCell>
        <mxCell id="FJQ37Yu0FEw0Es8PJi74-24" value="失败" style="edgeLabel;html=1;align=center;verticalAlign=middle;resizable=0;points=[];fontSize=12;" parent="FJQ37Yu0FEw0Es8PJi74-23" vertex="1" connectable="0">
          <mxGeometry x="0.278" y="3" relative="1" as="geometry">
            <mxPoint as="offset" />
          </mxGeometry>
        </mxCell>
        <mxCell id="FJQ37Yu0FEw0Es8PJi74-36" value="存储 Event" style="whiteSpace=wrap;html=1;fontSize=12;fontFamily=Verdana;rounded=1;shadow=0;labelBackgroundColor=none;strokeWidth=1;" parent="77e6c97f196da883-5" vertex="1">
          <mxGeometry x="20" y="290" width="120" height="60" as="geometry" />
        </mxCell>
        <mxCell id="FJQ37Yu0FEw0Es8PJi74-37" value="" style="edgeStyle=orthogonalEdgeStyle;rounded=0;orthogonalLoop=1;jettySize=auto;html=1;fontSize=12;" parent="77e6c97f196da883-5" source="FJQ37Yu0FEw0Es8PJi74-34" target="FJQ37Yu0FEw0Es8PJi74-36" edge="1">
          <mxGeometry relative="1" as="geometry" />
        </mxCell>
        <mxCell id="FJQ37Yu0FEw0Es8PJi74-39" value="实时" style="edgeLabel;html=1;align=center;verticalAlign=middle;resizable=0;points=[];fontSize=12;" parent="FJQ37Yu0FEw0Es8PJi74-37" vertex="1" connectable="0">
          <mxGeometry y="2" relative="1" as="geometry">
            <mxPoint as="offset" />
          </mxGeometry>
        </mxCell>
        <mxCell id="77e6c97f196da883-6" value="source_delay_topic" style="swimlane;html=1;startSize=20;" parent="77e6c97f196da883-1" vertex="1">
          <mxGeometry x="640" y="20" width="180" height="1110" as="geometry" />
        </mxCell>
        <mxCell id="FJQ37Yu0FEw0Es8PJi74-42" value="存储 Event" style="whiteSpace=wrap;html=1;fontSize=12;fontFamily=Verdana;rounded=1;shadow=0;labelBackgroundColor=none;strokeWidth=1;" parent="77e6c97f196da883-6" vertex="1">
          <mxGeometry x="30" y="365" width="120" height="60" as="geometry" />
        </mxCell>
        <mxCell id="77e6c97f196da883-7" value="target_exp_decay_topic" style="swimlane;html=1;startSize=20;" parent="77e6c97f196da883-1" vertex="1">
          <mxGeometry x="820" y="20" width="160" height="1110" as="geometry" />
        </mxCell>
        <mxCell id="FJQ37Yu0FEw0Es8PJi74-60" value="存储" style="whiteSpace=wrap;html=1;fontSize=12;fontFamily=Verdana;rounded=1;shadow=0;labelBackgroundColor=none;strokeWidth=1;" parent="77e6c97f196da883-7" vertex="1">
          <mxGeometry x="20" y="630" width="120" height="60" as="geometry" />
        </mxCell>
        <mxCell id="FJQ37Yu0FEw0Es8PJi74-77" value="发送到死信队列结束" style="ellipse;whiteSpace=wrap;html=1;fontSize=12;fontFamily=Verdana;rounded=1;shadow=0;labelBackgroundColor=none;strokeWidth=1;" parent="77e6c97f196da883-7" vertex="1">
          <mxGeometry x="40" y="1020" width="80" height="80" as="geometry" />
        </mxCell>
        <mxCell id="FJQ37Yu0FEw0Es8PJi74-1" value="target_backoff_topic" style="swimlane;html=1;startSize=20;" parent="77e6c97f196da883-1" vertex="1">
          <mxGeometry x="980" y="20" width="160" height="1110" as="geometry" />
        </mxCell>
        <mxCell id="FJQ37Yu0FEw0Es8PJi74-62" value="存储" style="whiteSpace=wrap;html=1;fontSize=12;fontFamily=Verdana;rounded=1;shadow=0;labelBackgroundColor=none;strokeWidth=1;" parent="FJQ37Yu0FEw0Es8PJi74-1" vertex="1">
          <mxGeometry x="20" y="730" width="120" height="60" as="geometry" />
        </mxCell>
        <mxCell id="FJQ37Yu0FEw0Es8PJi74-79" value="发送到死信队列结束" style="ellipse;whiteSpace=wrap;html=1;fontSize=12;fontFamily=Verdana;rounded=1;shadow=0;labelBackgroundColor=none;strokeWidth=1;" parent="FJQ37Yu0FEw0Es8PJi74-1" vertex="1">
          <mxGeometry x="40" y="1010" width="80" height="80" as="geometry" />
        </mxCell>
        <mxCell id="FJQ37Yu0FEw0Es8PJi74-2" value="Target APP" style="swimlane;html=1;startSize=20;" parent="77e6c97f196da883-1" vertex="1">
          <mxGeometry x="1140" y="20" width="160" height="1110" as="geometry" />
        </mxCell>
        <mxCell id="FJQ37Yu0FEw0Es8PJi74-53" value="结束" style="ellipse;whiteSpace=wrap;html=1;fontSize=12;fontFamily=Verdana;rounded=1;shadow=0;labelBackgroundColor=none;strokeWidth=1;" parent="FJQ37Yu0FEw0Es8PJi74-2" vertex="1">
          <mxGeometry x="40" y="520" width="80" height="80" as="geometry" />
        </mxCell>
        <mxCell id="FJQ37Yu0FEw0Es8PJi74-43" value="" style="edgeStyle=orthogonalEdgeStyle;rounded=0;orthogonalLoop=1;jettySize=auto;html=1;fontSize=12;" parent="77e6c97f196da883-1" source="FJQ37Yu0FEw0Es8PJi74-34" target="FJQ37Yu0FEw0Es8PJi74-42" edge="1">
          <mxGeometry relative="1" as="geometry">
            <Array as="points">
              <mxPoint x="250" y="420" />
            </Array>
          </mxGeometry>
        </mxCell>
        <mxCell id="FJQ37Yu0FEw0Es8PJi74-44" value="延迟" style="edgeLabel;html=1;align=center;verticalAlign=middle;resizable=0;points=[];fontSize=12;" parent="FJQ37Yu0FEw0Es8PJi74-43" vertex="1" connectable="0">
          <mxGeometry x="0.3" relative="1" as="geometry">
            <mxPoint as="offset" />
          </mxGeometry>
        </mxCell>
        <mxCell id="FJQ37Yu0FEw0Es8PJi74-47" style="edgeStyle=orthogonalEdgeStyle;rounded=0;orthogonalLoop=1;jettySize=auto;html=1;entryX=1;entryY=0.5;entryDx=0;entryDy=0;fontSize=12;" parent="77e6c97f196da883-1" source="FJQ37Yu0FEw0Es8PJi74-42" target="FJQ37Yu0FEw0Es8PJi74-49" edge="1">
          <mxGeometry relative="1" as="geometry">
            <mxPoint x="490" y="520" as="targetPoint" />
            <Array as="points">
              <mxPoint x="800" y="415" />
              <mxPoint x="800" y="520" />
            </Array>
          </mxGeometry>
        </mxCell>
        <mxCell id="FJQ37Yu0FEw0Es8PJi74-54" value="" style="edgeStyle=orthogonalEdgeStyle;rounded=0;orthogonalLoop=1;jettySize=auto;html=1;fontSize=12;" parent="77e6c97f196da883-1" source="FJQ37Yu0FEw0Es8PJi74-49" target="FJQ37Yu0FEw0Es8PJi74-53" edge="1">
          <mxGeometry relative="1" as="geometry">
            <Array as="points">
              <mxPoint x="400" y="580" />
            </Array>
          </mxGeometry>
        </mxCell>
        <mxCell id="FJQ37Yu0FEw0Es8PJi74-55" value="成功" style="edgeLabel;html=1;align=center;verticalAlign=middle;resizable=0;points=[];fontSize=12;" parent="FJQ37Yu0FEw0Es8PJi74-54" vertex="1" connectable="0">
          <mxGeometry x="0.25" y="2" relative="1" as="geometry">
            <mxPoint as="offset" />
          </mxGeometry>
        </mxCell>
        <mxCell id="FJQ37Yu0FEw0Es8PJi74-46" value="" style="edgeStyle=orthogonalEdgeStyle;rounded=0;orthogonalLoop=1;jettySize=auto;html=1;entryX=1;entryY=0.5;entryDx=0;entryDy=0;exitX=1;exitY=0.5;exitDx=0;exitDy=0;fontSize=12;" parent="77e6c97f196da883-1" source="FJQ37Yu0FEw0Es8PJi74-36" target="FJQ37Yu0FEw0Es8PJi74-49" edge="1">
          <mxGeometry relative="1" as="geometry">
            <mxPoint x="590" y="330" as="sourcePoint" />
            <mxPoint x="460" y="520" as="targetPoint" />
            <Array as="points">
              <mxPoint x="800" y="340" />
              <mxPoint x="800" y="520" />
            </Array>
          </mxGeometry>
        </mxCell>
        <mxCell id="FJQ37Yu0FEw0Es8PJi74-61" value="" style="edgeStyle=orthogonalEdgeStyle;rounded=0;orthogonalLoop=1;jettySize=auto;html=1;fontSize=12;" parent="77e6c97f196da883-1" source="FJQ37Yu0FEw0Es8PJi74-58" target="FJQ37Yu0FEw0Es8PJi74-60" edge="1">
          <mxGeometry relative="1" as="geometry" />
        </mxCell>
        <mxCell id="FJQ37Yu0FEw0Es8PJi74-64" value="指数衰减" style="edgeLabel;html=1;align=center;verticalAlign=middle;resizable=0;points=[];fontSize=12;" parent="FJQ37Yu0FEw0Es8PJi74-61" vertex="1" connectable="0">
          <mxGeometry x="0.13" y="1" relative="1" as="geometry">
            <mxPoint as="offset" />
          </mxGeometry>
        </mxCell>
        <mxCell id="FJQ37Yu0FEw0Es8PJi74-63" value="" style="edgeStyle=orthogonalEdgeStyle;rounded=0;orthogonalLoop=1;jettySize=auto;html=1;fontSize=12;" parent="77e6c97f196da883-1" source="FJQ37Yu0FEw0Es8PJi74-58" target="FJQ37Yu0FEw0Es8PJi74-62" edge="1">
          <mxGeometry relative="1" as="geometry">
            <Array as="points">
              <mxPoint x="400" y="730" />
              <mxPoint x="1060" y="730" />
            </Array>
          </mxGeometry>
        </mxCell>
        <mxCell id="FJQ37Yu0FEw0Es8PJi74-66" value="退避" style="edgeLabel;html=1;align=center;verticalAlign=middle;resizable=0;points=[];fontSize=12;" parent="FJQ37Yu0FEw0Es8PJi74-63" vertex="1" connectable="0">
          <mxGeometry x="-0.0029" relative="1" as="geometry">
            <mxPoint as="offset" />
          </mxGeometry>
        </mxCell>
        <mxCell id="FJQ37Yu0FEw0Es8PJi74-69" value="" style="edgeStyle=orthogonalEdgeStyle;rounded=0;orthogonalLoop=1;jettySize=auto;html=1;fontSize=12;" parent="77e6c97f196da883-1" source="FJQ37Yu0FEw0Es8PJi74-60" target="FJQ37Yu0FEw0Es8PJi74-68" edge="1">
          <mxGeometry relative="1" as="geometry">
            <Array as="points">
              <mxPoint x="1130" y="680" />
              <mxPoint x="1130" y="860" />
              <mxPoint x="400" y="860" />
            </Array>
          </mxGeometry>
        </mxCell>
        <mxCell id="FJQ37Yu0FEw0Es8PJi74-70" style="edgeStyle=orthogonalEdgeStyle;rounded=0;orthogonalLoop=1;jettySize=auto;html=1;entryX=0.5;entryY=1;entryDx=0;entryDy=0;fontSize=12;" parent="77e6c97f196da883-1" source="FJQ37Yu0FEw0Es8PJi74-68" target="FJQ37Yu0FEw0Es8PJi74-53" edge="1">
          <mxGeometry relative="1" as="geometry" />
        </mxCell>
        <mxCell id="FJQ37Yu0FEw0Es8PJi74-71" value="成功" style="edgeLabel;html=1;align=center;verticalAlign=middle;resizable=0;points=[];fontSize=12;" parent="FJQ37Yu0FEw0Es8PJi74-70" vertex="1" connectable="0">
          <mxGeometry x="-0.2073" relative="1" as="geometry">
            <mxPoint as="offset" />
          </mxGeometry>
        </mxCell>
        <mxCell id="FJQ37Yu0FEw0Es8PJi74-72" style="edgeStyle=orthogonalEdgeStyle;rounded=0;orthogonalLoop=1;jettySize=auto;html=1;exitX=1;exitY=0.5;exitDx=0;exitDy=0;entryX=0.5;entryY=0;entryDx=0;entryDy=0;fontSize=12;" parent="77e6c97f196da883-1" source="FJQ37Yu0FEw0Es8PJi74-62" target="FJQ37Yu0FEw0Es8PJi74-68" edge="1">
          <mxGeometry relative="1" as="geometry">
            <Array as="points">
              <mxPoint x="1130" y="780" />
              <mxPoint x="1130" y="860" />
              <mxPoint x="400" y="860" />
            </Array>
          </mxGeometry>
        </mxCell>
        <mxCell id="FJQ37Yu0FEw0Es8PJi74-78" value="" style="edgeStyle=orthogonalEdgeStyle;rounded=0;orthogonalLoop=1;jettySize=auto;html=1;fontSize=12;" parent="77e6c97f196da883-1" source="FJQ37Yu0FEw0Es8PJi74-68" target="FJQ37Yu0FEw0Es8PJi74-77" edge="1">
          <mxGeometry relative="1" as="geometry">
            <Array as="points">
              <mxPoint x="400" y="1000" />
              <mxPoint x="900" y="1000" />
            </Array>
          </mxGeometry>
        </mxCell>
        <mxCell id="FJQ37Yu0FEw0Es8PJi74-80" value="" style="edgeStyle=orthogonalEdgeStyle;rounded=0;orthogonalLoop=1;jettySize=auto;html=1;fontSize=12;" parent="77e6c97f196da883-1" source="FJQ37Yu0FEw0Es8PJi74-68" target="FJQ37Yu0FEw0Es8PJi74-79" edge="1">
          <mxGeometry relative="1" as="geometry">
            <Array as="points">
              <mxPoint x="400" y="1000" />
              <mxPoint x="1060" y="1000" />
            </Array>
          </mxGeometry>
        </mxCell>
        <mxCell id="FJQ37Yu0FEw0Es8PJi74-81" value="失败" style="edgeLabel;html=1;align=center;verticalAlign=middle;resizable=0;points=[];fontSize=12;" parent="FJQ37Yu0FEw0Es8PJi74-80" vertex="1" connectable="0">
          <mxGeometry x="-0.1444" y="-1" relative="1" as="geometry">
            <mxPoint as="offset" />
          </mxGeometry>
        </mxCell>
      </root>
    </mxGraphModel>
  </diagram>
</mxfile>
